<svg xmlns="http://www.w3.org/2000/svg" width="190.484" height="17.183" viewBox="0 0 190.484 17.183">
  <g id="Grupo_63" data-name="Grupo 63" transform="translate(-109 -7029.817)">
    <g id="Grupo_61" data-name="Grupo 61" transform="translate(-1155 1546)">
      <text id="copyright_text" data-name="copyright text" transform="translate(1264 5485)" font-size="13" font-family="Montserrat-Medium, Montserrat" font-weight="500" letter-spacing="-0.015em"><tspan x="2.975" y="13">Designed and built by </tspan></text>
      <g id="Grupo_59" data-name="Grupo 59" transform="translate(1358.147 5439.537)">
        <path id="Trazado_33" data-name="Trazado 33" d="M58.011,44.28H54.879l-.026,10.961a3.343,3.343,0,0,0,3.511,3.652,11.467,11.467,0,0,0,2.49-.433V56.483a7.914,7.914,0,0,1-1.745-.121,1.473,1.473,0,0,1-1.122-1.645L58,50.2l3.009.007.007-2.19L58,48.012Z" transform="translate(0)" fill="#ed4f24"/>
        <path id="Trazado_34" data-name="Trazado 34" d="M91.49,51.078a3.19,3.19,0,0,0,2.5-3.164c.006-2.225-1.967-3.609-5.139-3.617l-6.63-.017-.037,14.432H89.04c3.336.009,5.44-1.509,5.446-3.981A3.52,3.52,0,0,0,91.49,51.078Zm-6.023-4.134,3.212.008c1.235-.017,1.975.562,1.973,1.551,0,1.009-.746,1.6-1.981,1.6L85.459,50.1Zm3.189,9.111-3.212-.008.009-3.419,3.212.008c1.523-.016,2.47.625,2.467,1.674C91.129,55.423,90.179,56.06,88.656,56.055Z" transform="translate(-18.427)" fill="#ed4f24"/>
        <path id="Trazado_35" data-name="Trazado 35" d="M131.245,52.806l6.933.018.006-2.695-6.933-.018.008-3.128,7.715.02.007-2.723h-11V58.716h11.193l.006-2.7L131.236,56Z" transform="translate(-49.304 0)" fill="#ed4f24"/>
        <path id="Trazado_36" data-name="Trazado 36" d="M173.384,78.611a1.715,1.715,0,1,0,1.711,1.724A1.687,1.687,0,0,0,173.384,78.611Zm-.007,3.1a1.386,1.386,0,1,1,1.376-1.374A1.36,1.36,0,0,1,173.377,81.708Z" transform="translate(-78.758 -23.147)" fill="#ed4f24"/>
        <path id="Trazado_37" data-name="Trazado 37" d="M176.381,81.836c0-.316-.257-.522-.642-.523l-.729,0,0,1.574h.343v-.5h.257l.444.506h.411l-.487-.54A.53.53,0,0,0,176.381,81.836Zm-.645.237h-.385V81.62h.385c.179,0,.3.087.3.222S175.915,82.074,175.736,82.074Z" transform="translate(-81.011 -24.968)" fill="#ed4f24"/>
      </g>
    </g>
  </g>
</svg>
