<?xml version="1.0" encoding="utf-8"?>
<!-- Generator: Adobe Illustrator 27.0.1, SVG Export Plug-In . SVG Version: 6.00 Build 0)  -->
<svg version="1.1" id="Capa_1" xmlns="http://www.w3.org/2000/svg" xmlns:xlink="http://www.w3.org/1999/xlink" x="0px" y="0px"
	 viewBox="0 0 200 200" style="enable-background:new 0 0 200 200;" xml:space="preserve">
<style type="text/css">
	.st0{fill:#FFFFFF;}
</style>
<g>
	<polygon class="st0" points="187.35,105.81 116.25,105.81 110.37,123.6 139.78,123.6 121.65,178.51 92.24,178.51 86.37,196.31 
		188.58,196.31 188.58,178.51 163.34,178.51 	"/>
	<polygon class="st0" points="188.58,61.31 188.58,3.69 149.96,3.69 140.94,31.02 158.39,31.02 163.52,15.44 175.48,15.43 
		166.51,42.63 137.11,42.63 120.08,94.19 188.58,94.19 188.58,72.93 149.73,72.93 153.56,61.31 	"/>
	<polygon class="st0" points="41.4,35.82 38.52,94.19 58.81,94.19 94.15,37.84 75.54,94.19 108.13,94.19 138.02,3.69 86.09,3.69 
		58.44,61.2 69.55,3.69 11.42,3.69 11.42,94.19 22.13,94.19 	"/>
	<polygon class="st0" points="54.85,156.86 47.7,178.51 35.77,178.51 53.85,123.6 65.83,123.6 58.68,145.25 91.27,145.25 
		104.3,105.81 11.42,105.81 11.42,196.31 74.42,196.31 87.44,156.86 	"/>
</g>
</svg>
